<?xml version="1.0" encoding="UTF-8"?>
<svg id="Layer_2" data-name="Layer 2" xmlns="http://www.w3.org/2000/svg" viewBox="0 0 483.54 482.19">
  <defs>
    <style>
      .cls-1 {
        fill: #0165fc;
        stroke-width: 0px;
      }
    </style>
  </defs>
  <g id="Layer_1-2" data-name="Layer 1">
    <polygon class="cls-1" points="241.77 85.01 277.9 0 287.38 91.88 346.96 21.3 328.93 111.89 406.67 62.01 362.74 143.27 451.73 118.52 385.8 183.21 478.14 185.79 396.07 228.18 483.54 257.86 392.62 274.17 467.46 328.31 375.77 317.1 431.32 390.9 347.01 353.16 378.34 440.06 308.9 379.15 313.23 471.41 264.83 392.74 241.77 482.19 218.71 392.74 170.31 471.41 174.63 379.15 105.19 440.06 136.53 353.16 52.22 390.9 107.77 317.1 16.08 328.31 90.92 274.17 0 257.86 87.47 228.18 5.4 185.79 97.73 183.21 31.8 118.52 120.8 143.27 76.86 62.01 154.61 111.89 136.58 21.3 196.16 91.88 205.63 0 241.77 85.01"/>
  </g>
</svg>