<?xml version="1.0" encoding="UTF-8"?>
<svg id="Layer_2" data-name="Layer 2" xmlns="http://www.w3.org/2000/svg" viewBox="0 0 449.21 575">
  <defs>
    <style>
      .cls-1 {
        fill: #0165fc;
        stroke-width: 0px;
      }
    </style>
  </defs>
  <g id="Layer_1-2" data-name="Layer 1">
    <g>
      <rect class="cls-1" x="266.81" width="4" height="575"/>
      <rect class="cls-1" x="244.51" width="4" height="575"/>
      <rect class="cls-1" x="177.6" width="4" height="575"/>
      <rect class="cls-1" x="155.3" width="4" height="575"/>
      <rect class="cls-1" x="222.21" width="4" height="575"/>
      <rect class="cls-1" x="199.91" width="4" height="575"/>
      <rect class="cls-1" x="133" width="4" height="575"/>
      <rect class="cls-1" x="110.7" width="4" height="575"/>
      <rect class="cls-1" x="88.4" width="4" height="575"/>
      <rect class="cls-1" x="66.1" width="4" height="575"/>
      <rect class="cls-1" x="43.8" width="4" height="575"/>
      <rect class="cls-1" y="25" width="55" height="525"/>
      <rect class="cls-1" x="378.31" width="4" height="575"/>
      <rect class="cls-1" x="356.01" width="4" height="575"/>
      <rect class="cls-1" x="289.11" width="4" height="575"/>
      <rect class="cls-1" x="333.71" width="4" height="575"/>
      <rect class="cls-1" x="311.41" width="4" height="575"/>
      <rect class="cls-1" x="445.21" width="4" height="575"/>
      <rect class="cls-1" x="422.91" width="4" height="575"/>
      <rect class="cls-1" x="400.61" width="4" height="575"/>
    </g>
  </g>
</svg>