<?xml version="1.0" encoding="UTF-8"?>
<svg id="Layer_2" data-name="Layer 2" xmlns="http://www.w3.org/2000/svg" viewBox="0 0 128.03 127.97">
  <defs>
    <style>
      .cls-1 {
        fill: #ededed;
        stroke-width: 0px;
      }
    </style>
  </defs>
  <g id="Layer_1-2" data-name="Layer 1">
    <path class="cls-1" d="M128.01,9.21c0-.9-.17-1.82-.4-2.7C126.79,3.37,123.43-.01,118.47,0c-30.63.06-61.26.03-91.89.03C20.79.03,15,0,9.21.04,3.92.08,0,4.07,0,9.33,0,45.78,0,82.23,0,118.68c0,.48.03.96.09,1.43.66,4.54,4.72,7.88,9.52,7.85,18.09-.1,36.18-.04,54.27-.04,11.5,0,23,0,34.5,0,6.83,0,13.66.03,20.49-.01,5.2-.03,9.14-4.05,9.14-9.22,0-36.49,0-72.98-.02-109.47ZM38.1,107.87c0,1.14-.41,1.43-1.46,1.42-5.47-.03-10.94-.04-16.41,0-1.12,0-1.51-.3-1.5-1.48.04-9.74.03-19.47.03-29.21,0-9.7,0-19.39,0-29.09q0-1.66,1.71-1.66c5.39,0,10.78.02,16.17-.02,1.04,0,1.47.22,1.47,1.38-.03,19.55-.03,39.11,0,58.66ZM28.35,39.64c-6.15,0-11.04-4.92-11.04-11.1,0-6.22,4.93-11.12,11.17-11.12,6.14,0,11.07,5.02,11.06,11.24-.01,6.1-4.99,10.98-11.18,10.98ZM107.82,109.29c-5.43-.05-10.86-.05-16.29,0-1.23.01-1.56-.42-1.55-1.6.04-10.06.07-20.12-.01-30.18-.02-2.49-.23-5.03-.78-7.45-1.02-4.54-3.84-6.67-8.46-6.72-1.38-.02-2.81.05-4.14.39-4.43,1.11-6.32,4.45-7.06,8.59-.35,1.99-.49,4.04-.5,6.06-.05,9.78-.04,19.56,0,29.34,0,1.2-.31,1.59-1.53,1.58-5.43-.06-10.86-.06-16.29,0-1.22.01-1.55-.38-1.55-1.58.03-19.44.03-38.88,0-58.32,0-1.17.26-1.59,1.52-1.58,5.23.07,10.46.06,15.69,0,1.13-.01,1.45.36,1.41,1.44-.07,2.19-.02,4.38-.02,6.95,2.67-4.22,6.04-7,10.37-8.66,3.92-1.5,7.95-1.46,12.02-1.01,3.32.36,6.49,1.24,9.34,3.06,4.6,2.95,6.85,7.43,8.05,12.55,1.02,4.33,1.25,8.74,1.24,13.18-.03,10.82-.03,21.64,0,32.46,0,1.13-.3,1.53-1.47,1.52Z"/>
  </g>
</svg>