<?xml version="1.0" encoding="UTF-8"?>
<svg id="Layer_1" data-name="Layer 1" xmlns="http://www.w3.org/2000/svg" viewBox="0 0 276.25 146.35">
  <defs>
    <style>
      .cls-1 {
        fill: none;
        stroke: #0165fc;
        stroke-width: .5px;
      }
    </style>
  </defs>
  <g>
    <path class="cls-1" d="m58.47,58.04v1.07h-20.73v-1.07c3.92,0,6.64-3.91,5.27-7.59l-6.43-17.24c-.85-2.28-3.77-2.92-5.49-1.2l-19.58,19.58c-.72.72-1.07,1.66-1.07,2.59,0,1.13.52,2.26,1.53,2.99.4.28.83.5,1.29.65.46.15.94.22,1.42.22v1.07H.25v-1.07c3.08,0,5.84-1.92,6.9-4.81L23.81,7.82c.2-.56.3-1.12.3-1.67,0-2.56-2.07-4.82-4.84-4.82V.26h12.94l19.75,53.25c.5,1.36,1.41,2.49,2.54,3.28,1.14.79,2.51,1.24,3.96,1.24Zm-25.23-33.79l-7.22-19.38-15.4,41.99c-.56,1.53,1.35,2.76,2.51,1.6l18.99-18.99c1.37-1.37,1.81-3.41,1.14-5.23Z"/>
    <path class="cls-1" d="m108.41,47.99l-.96,11.12h-20.93s-25.65,0-25.65,0v-1.08c1.86,0,3.55-.75,4.77-1.97,1.22-1.22,1.97-2.9,1.97-4.76V8.06c0-3.72-3.02-6.74-6.74-6.74V.25h19.59v1.07h0c-3.72,0-6.74,3.02-6.74,6.74v45.03c0,2.73,2.21,4.95,4.94,4.95h13.25c8.19,0,15.04-6.24,15.8-14.39h0s1.08,0,1.08,0l-.38,4.35Z"/>
    <path class="cls-1" d="m143.65,58.04c8.19,0,15.03-6.24,15.79-14.39h1.08l-1.34,15.47h-46.57v-1.08c1.86,0,3.55-.75,4.77-1.98s1.97-2.9,1.97-4.77V8.07c0-3.72-3.02-6.75-6.75-6.75V.25h45.5l1.34,15.47h-1.08c-.76-8.16-7.6-14.4-15.79-14.4h-17.12v21.84c0,2.73,2.21,4.95,4.95,4.95h6.16c5.42,0,9.82-4.4,9.82-9.82h1.07v20.69h-1.07c0-5.42-4.4-9.82-9.82-9.82h-6.16c-2.73,0-4.95,2.22-4.95,4.95v23.94h18.19Z"/>
    <path class="cls-1" d="m219.3,59.11h-20.35v-1.07c1.97,0,3.37-1.62,3.37-3.37,0-.59-.16-1.19-.5-1.75l-10.92-17.88c-.92-1.5-3.11-1.49-4,.03l-10.58,17.9c-1.42,2.2.16,5.09,2.78,5.09v1.08h-14.78v-1.08c2.32,0,4.56-.59,6.54-1.67,1.98-1.08,3.69-2.64,4.95-4.59l12.46-21.09-14.79-24.23c-1.95-3.19-5.41-5.13-9.15-5.13V.25h20.35v1.08c-2.31,0-3.95,1.9-3.95,3.95,0,.7.19,1.43.61,2.1l9.91,15.72c.93,1.48,3.1,1.45,3.99-.06l9.82-16.62c1.42-2.2-.16-5.09-2.78-5.09V.25h14.78v1.08c-2.32,0-4.56.59-6.54,1.67-1.98,1.08-3.69,2.64-4.94,4.59l-11.66,19.74,16.16,25.62c2,3.17,5.48,5.09,9.22,5.09v1.07Z"/>
  </g>
  <g>
    <path class="cls-1" d="m53.65,146.01l-9-7.33-3.18-2.56-1.58-1.23c-5.85,1.77-12.21,1.64-18.02-.35-1.87-.64-3.66-1.46-5.29-2.49-4.27-2.78-8.63-6.02-11.61-10.5-2.99-4.45-4.68-10.47-4.71-15.97.03-5.5,1.73-11.52,4.71-15.97,2.98-4.48,7.34-7.72,11.61-10.5,1.26-.8,2.61-1.47,4.02-2.03,6.45-2.57,13.73-2.7,20.3-.45,1.87.64,3.66,1.46,5.29,2.49,4.27,2.78,8.63,6.02,11.61,10.5,2.99,4.45,4.68,10.47,4.71,15.97-.03,5.5-1.73,11.52-4.71,15.97-2.98,4.48-7.34,7.72-11.61,10.5-1.26.8-2.61,1.47-4.02,2.03-.36.15-.73.28-1.1.41l1.12.9c6.49,5.2,15.85,4.68,21.73-1.2l.76.76-11.04,11.04Zm-18-11.63c1.25-.25,1.7-1.79.77-2.67-3.05-2.86-7.55-7.33-11.87-12.53-4.4-5.29-7.74-10.29-9.94-14.85-2.78-5.76-3.74-10.87-2.87-15.18.11-.53.25-1.04.41-1.55-.85,1.49-1.56,3.05-2.18,4.65-1.6,4.39-2.31,8.86-2.31,13.34s.7,8.95,2.31,13.34c1.67,4.33,4.04,8.45,7.93,11.38,1.38,1,2.97,1.89,4.67,2.65,4.16,1.86,8.72,2.28,13.07,1.42Zm9.12-3.99l.11-.08c3.89-2.93,6.26-7.05,7.93-11.38,1.61-4.39,2.31-8.86,2.31-13.34s-.7-8.95-2.31-13.34c-1.67-4.33-4.03-8.45-7.93-11.38-1.37-1-2.96-1.89-4.66-2.65-5.09-2.28-10.78-2.4-15.95-.65-6.6,2.71-10.47,6.66-11.52,11.78-.84,4.08.1,8.97,2.78,14.53,2.16,4.49,5.46,9.42,9.81,14.64,4.26,5.13,8.7,9.54,11.73,12.39,1.59,1.49,3.98,1.8,5.86.7.63-.37,1.25-.78,1.85-1.21Z"/>
    <path class="cls-1" d="m125.73,77.24h0c-3.75,0-6.8,3.04-6.8,6.8v30.6c0,5.94-2.4,11.32-6.3,15.21-3.89,3.89-9.27,6.3-15.21,6.3-13,0-23.55-10.55-23.55-23.55v-28.55c0-3.75-3.04-6.8-6.8-6.8v-1.08h19.74v1.08h0c-3.75,0-6.8,3.04-6.8,6.8v28.58c0,9.59,7.77,17.37,17.37,17.37h3.11c9.6,0,17.37-7.78,17.37-17.37v-28.58c0-3.75-3.04-6.8-6.8-6.8v-1.08h14.64v1.08Z"/>
    <path class="cls-1" d="m149.1,133.95h0v1.08h-19.59v-1.08c1.86,0,3.55-.75,4.76-1.97,1.22-1.22,1.97-2.91,1.97-4.77v-43.23c0-3.72-3.02-6.74-6.74-6.74v-1.08h19.59v1.08h0c-3.72,0-6.74,3.02-6.74,6.74v43.23c0,3.72,3.02,6.74,6.74,6.74Z"/>
    <path class="cls-1" d="m205.75,83.98v43.19c0,3.74,3.03,6.77,6.77,6.77v1.08h-15.71l-30.12-53.29c-.44-.77-1.39-1.17-2.3-.84-.76.27-1.23,1.04-1.23,1.84v44.53c0,3.69,2.99,6.68,6.68,6.68v1.08h-14.46v-1.08h.06c3.69,0,6.68-2.99,6.68-6.68v-43.29c0-3.72-3.02-6.74-6.74-6.74v-1.08h15.71l30.08,53.27c.33.59.96.96,1.64.96.53,0,1-.21,1.33-.55.35-.34.55-.81.55-1.34v-44.53c0-3.72-3.02-6.74-6.74-6.74v-1.08h14.55v1.08h-.03c-3.72,0-6.74,3.02-6.74,6.74Z"/>
    <path class="cls-1" d="m269.22,83.98v43.19c0,3.74,3.03,6.77,6.77,6.77v1.08h-15.71l-30.12-53.29c-.44-.77-1.39-1.17-2.3-.84-.76.27-1.23,1.04-1.23,1.84v44.53c0,3.69,2.99,6.68,6.68,6.68v1.08h-14.46v-1.08h.06c3.69,0,6.68-2.99,6.68-6.68v-43.29c0-3.72-3.02-6.74-6.74-6.74v-1.08h15.71l30.08,53.27c.33.59.96.96,1.64.96.53,0,1-.21,1.33-.55.35-.34.55-.81.55-1.34v-44.53c0-3.72-3.02-6.74-6.74-6.74v-1.08h14.55v1.08h-.03c-3.72,0-6.74,3.02-6.74,6.74Z"/>
  </g>
</svg>