<?xml version="1.0" encoding="UTF-8"?>
<svg id="Layer_1" data-name="Layer 1" xmlns="http://www.w3.org/2000/svg" version="1.1" viewBox="0 0 276.2 146.4">
  <defs>
    <style>
      .cls-1 {
        fill: none;
        stroke: #f0ede4;
        stroke-width: .5px;
      }
    </style>
  </defs>
  <g>
    <path class="cls-1" d="M58.5,58v1.1h-20.7v-1.1c3.9,0,6.6-3.9,5.3-7.6l-6.4-17.2c-.8-2.3-3.8-2.9-5.5-1.2l-19.6,19.6c-.7.7-1.1,1.7-1.1,2.6s.5,2.3,1.5,3c.4.3.8.5,1.3.7s.9.2,1.4.2v1.1H.2v-1.1c3.1,0,5.8-1.9,6.9-4.8L23.8,7.8c.2-.6.3-1.1.3-1.7,0-2.6-2.1-4.8-4.8-4.8V.3h12.9l19.8,53.2c.5,1.4,1.4,2.5,2.5,3.3,1.1.8,2.5,1.2,4,1.2h0ZM33.2,24.2l-7.2-19.4-15.4,42c-.6,1.5,1.4,2.8,2.5,1.6l19-19c1.4-1.4,1.8-3.4,1.1-5.2h0Z"/>
    <path class="cls-1" d="M108.4,48l-1,11.1h-46.6v-1.1c1.9,0,3.6-.8,4.8-2,1.2-1.2,2-2.9,2-4.8V8.1c0-3.7-3-6.7-6.7-6.7V.2h19.6v1.1h0c-3.7,0-6.7,3-6.7,6.7v45c0,2.7,2.2,5,4.9,5h13.2c8.2,0,15-6.2,15.8-14.4h1.1l-.4,4.3h0Z"/>
    <path class="cls-1" d="M143.6,58c8.2,0,15-6.2,15.8-14.4h1.1l-1.3,15.5h-46.6v-1.1c1.9,0,3.6-.8,4.8-2s2-2.9,2-4.8V8.1c0-3.7-3-6.8-6.8-6.8V.2h45.5l1.3,15.5h-1.1c-.8-8.2-7.6-14.4-15.8-14.4h-17.1v21.8c0,2.7,2.2,5,5,5h6.2c5.4,0,9.8-4.4,9.8-9.8h1.1v20.7h-1.1c0-5.4-4.4-9.8-9.8-9.8h-6.2c-2.7,0-4.9,2.2-4.9,5v23.9h18.2Z"/>
    <path class="cls-1" d="M219.3,59.1h-20.4v-1.1c2,0,3.4-1.6,3.4-3.4s-.2-1.2-.5-1.8l-10.9-17.9c-.9-1.5-3.1-1.5-4,0l-10.6,17.9c-1.4,2.2.2,5.1,2.8,5.1v1.1h-14.8v-1.1c2.3,0,4.6-.6,6.5-1.7,2-1.1,3.7-2.6,4.9-4.6l12.5-21.1-14.8-24.2c-1.9-3.2-5.4-5.1-9.1-5.1V.2h20.4v1.1c-2.3,0-3.9,1.9-3.9,4s.2,1.4.6,2.1l9.9,15.7c.9,1.5,3.1,1.5,4,0l9.8-16.6c1.4-2.2-.2-5.1-2.8-5.1V.2h14.8v1.1c-2.3,0-4.6.6-6.5,1.7s-3.7,2.6-4.9,4.6l-11.7,19.7,16.2,25.6c2,3.2,5.5,5.1,9.2,5.1v1.1h0Z"/>
  </g>
  <g>
    <path class="cls-1" d="M53.7,146l-9-7.3-3.2-2.6-1.6-1.2c-5.8,1.8-12.2,1.6-18-.4-1.9-.6-3.7-1.5-5.3-2.5-4.3-2.8-8.6-6-11.6-10.5-3-4.4-4.7-10.5-4.7-16,0-5.5,1.7-11.5,4.7-16,3-4.5,7.3-7.7,11.6-10.5,1.3-.8,2.6-1.5,4-2,6.5-2.6,13.7-2.7,20.3-.4,1.9.6,3.7,1.5,5.3,2.5,4.3,2.8,8.6,6,11.6,10.5,3,4.4,4.7,10.5,4.7,16,0,5.5-1.7,11.5-4.7,16-3,4.5-7.3,7.7-11.6,10.5-1.3.8-2.6,1.5-4,2-.4.1-.7.3-1.1.4l1.1.9c6.5,5.2,15.9,4.7,21.7-1.2l.8.8-11,11h0ZM35.7,134.4c1.2-.2,1.7-1.8.8-2.7-3-2.9-7.5-7.3-11.9-12.5-4.4-5.3-7.7-10.3-9.9-14.8-2.8-5.8-3.7-10.9-2.9-15.2.1-.5.2-1,.4-1.6-.9,1.5-1.6,3.1-2.2,4.7-1.6,4.4-2.3,8.9-2.3,13.3s.7,8.9,2.3,13.3c1.7,4.3,4,8.4,7.9,11.4,1.4,1,3,1.9,4.7,2.6,4.2,1.9,8.7,2.3,13.1,1.4h0ZM44.8,130.4h.1c3.9-3,6.3-7.1,7.9-11.5,1.6-4.4,2.3-8.9,2.3-13.3s-.7-8.9-2.3-13.3c-1.7-4.3-4-8.4-7.9-11.4-1.4-1-3-1.9-4.7-2.7-5.1-2.3-10.8-2.4-16-.7-6.6,2.7-10.5,6.7-11.5,11.8-.8,4.1.1,9,2.8,14.5,2.2,4.5,5.5,9.4,9.8,14.6,4.3,5.1,8.7,9.5,11.7,12.4,1.6,1.5,4,1.8,5.9.7.6-.4,1.2-.8,1.8-1.2h0Z"/>
    <path class="cls-1" d="M125.7,77.2h0c-3.8,0-6.8,3-6.8,6.8v30.6c0,5.9-2.4,11.3-6.3,15.2-3.9,3.9-9.3,6.3-15.2,6.3-13,0-23.6-10.6-23.6-23.6v-28.6c0-3.8-3-6.8-6.8-6.8v-1.1h19.7v1.1h0c-3.8,0-6.8,3-6.8,6.8v28.6c0,9.6,7.8,17.4,17.4,17.4h3.1c9.6,0,17.4-7.8,17.4-17.4v-28.6c0-3.8-3-6.8-6.8-6.8v-1.1h14.6v1.1h0Z"/>
    <path class="cls-1" d="M149.1,133.9h0v1.1h-19.6v-1.1c1.9,0,3.6-.8,4.8-2,1.2-1.2,2-2.9,2-4.8v-43.2c0-3.7-3-6.7-6.7-6.7v-1.1h19.6v1.1h0c-3.7,0-6.7,3-6.7,6.7v43.2c0,3.7,3,6.7,6.7,6.7h0Z"/>
    <path class="cls-1" d="M205.8,84v43.2c0,3.7,3,6.8,6.8,6.8v1.1h-15.7l-30.1-53.3c-.4-.8-1.4-1.2-2.3-.8-.8.3-1.2,1-1.2,1.8v44.5c0,3.7,3,6.7,6.7,6.7v1.1h-14.5v-1.1h0c3.7,0,6.7-3,6.7-6.7v-43.3c0-3.7-3-6.7-6.7-6.7v-1.1h15.7l30.1,53.3c.3.6,1,1,1.6,1s1-.2,1.3-.6c.4-.3.6-.8.6-1.3v-44.5c0-3.7-3-6.7-6.7-6.7v-1.1h14.6v1.1h0c-3.7,0-6.7,3-6.7,6.7h0Z"/>
    <path class="cls-1" d="M269.2,84v43.2c0,3.7,3,6.8,6.8,6.8v1.1h-15.7l-30.1-53.3c-.4-.8-1.4-1.2-2.3-.8-.8.3-1.2,1-1.2,1.8v44.5c0,3.7,3,6.7,6.7,6.7v1.1h-14.5v-1.1h0c3.7,0,6.7-3,6.7-6.7v-43.3c0-3.7-3-6.7-6.7-6.7v-1.1h15.7l30.1,53.3c.3.6,1,1,1.6,1s1-.2,1.3-.6c.4-.3.5-.8.5-1.3v-44.5c0-3.7-3-6.7-6.7-6.7v-1.1h14.5v1.1h0c-3.7,0-6.7,3-6.7,6.7h0Z"/>
  </g>
</svg>