<?xml version="1.0" encoding="UTF-8"?>
<svg id="Layer_2" data-name="Layer 2" xmlns="http://www.w3.org/2000/svg" viewBox="0 0 173.1 97.37">
  <defs>
    <style>
      .cls-1 {
        fill: none;
        stroke: #0165fc;
        stroke-miterlimit: 10;
        stroke-width: .5px;
      }
    </style>
  </defs>
  <g id="Layer_1-2" data-name="Layer 1">
    <g>
      <path class="cls-1" d="m.25,49.89C.25,20.05,14.17.25,34.77.25s34.52,17.93,34.52,44.82c0,31.18-13.65,52.05-33.85,52.05S.25,78.26.25,49.89Zm36.13,45.49c11.77,0,17.66-17.53,17.66-43.89,0-29.57-6.29-49.51-20.61-49.51-11.64,0-17.93,16.99-17.93,42.28,0,30.64,6.69,51.11,20.87,51.11Z"/>
      <path class="cls-1" d="m79.32,69.83L128.29.25h.54v69.85c10.57,0,13.11-4.55,18.2-13.51h.4l-3.34,15.25h-15.25v3.48c0,13.11,4.28,18.06,11.11,19.67v.54h-36.26v-.54c7.36-1.61,11.11-7.36,11.11-19.67v-3.48h-35.46v-2.01Zm35.46.27V23.26h-.4l-32.78,46.83h33.18Z"/>
      <path class="cls-1" d="m172.85,89.36c0,4.68-3.21,7.76-8.03,7.76s-8.03-3.08-8.03-7.76,3.21-7.76,8.03-7.76,8.03,3.08,8.03,7.76Z"/>
    </g>
  </g>
</svg>