<?xml version="1.0" encoding="UTF-8"?>
<svg id="Layer_1" data-name="Layer 1" xmlns="http://www.w3.org/2000/svg" viewBox="0 0 150.53 96.55">
  <defs>
    <style>
      .cls-1 {
        fill: none;
        stroke: #0165fc;
        stroke-miterlimit: 10;
        stroke-width: .5px;
      }
    </style>
  </defs>
  <path class="cls-1" d="m.25,49.47C.25,19.88,14.05.25,34.48.25s34.23,17.78,34.23,44.44c0,30.91-13.53,51.6-33.56,51.6S.25,77.59.25,49.47Zm35.82,45.1c11.67,0,17.51-17.38,17.51-43.51,0-29.32-6.23-49.08-20.43-49.08-11.54,0-17.78,16.85-17.78,41.92,0,30.38,6.63,50.68,20.7,50.68Z"/>
  <path class="cls-1" d="m85.15,94.31c7.3-1.33,11.01-6.1,11.01-16.32v-45.37c0-10.75-2.65-20.43-16.19-21.23v-.4c11.67-1.99,22.68-5.97,29.72-10.75h.4v77.74c0,10.88,4.25,14.99,11.01,16.32v.4h-35.95v-.4Z"/>
  <path class="cls-1" d="m150.28,88.6c0,4.64-3.18,7.69-7.96,7.69s-7.96-3.05-7.96-7.69,3.18-7.69,7.96-7.69,7.96,3.05,7.96,7.69Z"/>
</svg>