<?xml version="1.0" encoding="UTF-8"?>
<svg id="Layer_2" data-name="Layer 2" xmlns="http://www.w3.org/2000/svg" viewBox="0 0 173.77 97.37">
  <defs>
    <style>
      .cls-1 {
        fill: none;
        stroke: #dff000;
        stroke-miterlimit: 10;
        stroke-width: .5px;
      }
    </style>
  </defs>
  <g id="Layer_1-2" data-name="Layer 1">
    <g>
      <path class="cls-1" d="M.25,49.89C.25,20.05,14.17.25,34.77.25s34.52,17.93,34.52,44.82c0,31.18-13.65,52.05-33.85,52.05S.25,78.26.25,49.89ZM36.38,95.38c11.77,0,17.66-17.53,17.66-43.89,0-29.57-6.29-49.51-20.61-49.51-11.64,0-17.93,16.99-17.93,42.28,0,30.64,6.69,51.11,20.87,51.11Z"/>
      <path class="cls-1" d="M81.33,75.58c0-5.75,4.01-8.56,8.03-8.56,3.61,0,7.23,2.68,7.23,7.09,0,5.89-5.75,7.63-5.75,11.37,0,5.62,8.43,9.9,17.66,9.9,14.05,0,18.87-11.51,18.87-27.56,0-12.18-3.88-23.68-15.79-23.68-3.75,0-7.89,1.47-12.44,4.55v-2.54l29.7-30.91h-20.47c-11.24,0-16.32,3.75-21.14,13.11h-.54l4.82-26.49h52.58v.4l-39.74,41.35c3.61-1.34,7.49-2.01,11.37-2.01,14.85,0,27.16,8.3,27.16,25.42,0,19.13-13.51,30.11-34.52,30.11-16.99,0-27.03-11.51-27.03-21.54Z"/>
      <path class="cls-1" d="M173.52,89.36c0,4.68-3.21,7.76-8.03,7.76s-8.03-3.08-8.03-7.76,3.21-7.76,8.03-7.76,8.03,3.08,8.03,7.76Z"/>
    </g>
  </g>
</svg>