<?xml version="1.0" encoding="UTF-8"?>
<svg id="Layer_2" data-name="Layer 2" xmlns="http://www.w3.org/2000/svg" viewBox="0 0 169.48 103.13">
  <defs>
    <style>
      .cls-1 {
        fill: none;
        stroke: #dff000;
        stroke-miterlimit: 10;
        stroke-width: .5px;
      }
    </style>
  </defs>
  <g id="Layer_1-2" data-name="Layer 1">
    <g>
      <path class="cls-1" d="M.25,55.65C.25,25.81,14.17,6,34.77,6s34.52,17.93,34.52,44.82c0,31.18-13.65,52.05-33.85,52.05S.25,84.01.25,55.65ZM36.38,101.14c11.77,0,17.66-17.53,17.66-43.89,0-29.57-6.29-49.51-20.61-49.51-11.64,0-17.93,16.99-17.93,42.28,0,30.64,6.69,51.11,20.87,51.11Z"/>
      <path class="cls-1" d="M81.33,81.34c0-5.75,3.61-8.3,7.63-8.3,3.61,0,7.23,2.68,7.23,7.09,0,5.89-5.75,6.96-5.75,10.7,0,5.75,6.82,10.3,18.2,10.3,12.44,0,17.39-11.37,17.39-27.3s-6.29-27.03-18.73-27.03c-6.29,0-13.25,3.08-19.27,9.63h-.4l6.29-48.84h27.43c11.24,0,16.19-.94,20.07-7.36h.4l-3.48,20.74h-44.16l-4.01,31.04c5.49-5.22,13.65-8.3,22.48-8.3,19.54,0,28.9,13.92,28.9,28.23,0,15.25-9.5,30.91-32.51,30.91-18.46,0-27.7-11.51-27.7-21.54Z"/>
      <path class="cls-1" d="M169.23,95.12c0,4.68-3.21,7.76-8.03,7.76s-8.03-3.08-8.03-7.76,3.21-7.76,8.03-7.76,8.03,3.08,8.03,7.76Z"/>
    </g>
  </g>
</svg>