<?xml version="1.0" encoding="UTF-8"?>
<svg id="Layer_2" data-name="Layer 2" xmlns="http://www.w3.org/2000/svg" viewBox="0 0 172.56 97.37">
  <defs>
    <style>
      .cls-1 {
        fill: none;
        stroke: #0165fc;
        stroke-miterlimit: 10;
        stroke-width: .5px;
      }
    </style>
  </defs>
  <g id="Layer_1-2" data-name="Layer 1">
    <g>
      <path class="cls-1" d="m.25,49.89C.25,20.05,14.17.25,34.77.25s34.52,17.93,34.52,44.82c0,31.18-13.65,52.05-33.85,52.05S.25,78.26.25,49.89Zm36.13,45.49c11.77,0,17.66-17.53,17.66-43.89,0-29.57-6.29-49.51-20.61-49.51-11.64,0-17.93,16.99-17.93,42.28,0,30.64,6.69,51.11,20.87,51.11Z"/>
      <path class="cls-1" d="m102.74,55.11c11.24-8.56,22.61-17.13,22.61-34.12,0-11.37-5.49-18.87-15.92-18.87-8.3,0-14.58,3.88-14.58,8.83,0,2.81,6.02,4.55,6.02,10.44,0,4.42-4.01,7.23-7.76,7.23s-8.16-2.41-8.16-8.03c0-9.77,8.56-20.2,26.23-20.2,15.66,0,30.11,7.09,30.11,20.47,0,16.19-21.28,26.23-35.73,35.46-10.57,6.69-19.13,15.12-19.13,25.82h27.43c16.19,0,22.35-3.35,28.63-15.12h.4l-4.82,28.5h-56.06c0-23.01,10.17-32.38,20.74-40.41Z"/>
      <path class="cls-1" d="m172.31,89.36c0,4.68-3.21,7.76-8.03,7.76s-8.03-3.08-8.03-7.76,3.21-7.76,8.03-7.76,8.03,3.08,8.03,7.76Z"/>
    </g>
  </g>
</svg>