<?xml version="1.0" encoding="UTF-8"?>
<svg id="Layer_2" data-name="Layer 2" xmlns="http://www.w3.org/2000/svg" viewBox="0 0 151.82 97.37">
  <defs>
    <style>
      .cls-1 {
        fill: none;
        stroke: #dff000;
        stroke-miterlimit: 10;
        stroke-width: .5px;
      }
    </style>
  </defs>
  <g id="Layer_1-2" data-name="Layer 1">
    <g>
      <path class="cls-1" d="m.25,49.89C.25,20.05,14.17.25,34.77.25s34.52,17.93,34.52,44.82c0,31.18-13.65,52.05-33.85,52.05S.25,78.26.25,49.89Zm36.13,45.49c11.77,0,17.66-17.53,17.66-43.89,0-29.57-6.29-49.51-20.61-49.51-11.64,0-17.93,16.99-17.93,42.28,0,30.64,6.69,51.11,20.87,51.11Z"/>
      <path class="cls-1" d="m85.88,95.12c7.36-1.34,11.11-6.16,11.11-16.46v-45.76c0-10.84-2.68-20.61-16.32-21.41v-.4c11.77-2.01,22.88-6.02,29.97-10.84h.4v78.41c0,10.97,4.28,15.12,11.11,16.46v.4h-36.26v-.4Z"/>
      <path class="cls-1" d="m151.57,89.36c0,4.68-3.21,7.76-8.03,7.76s-8.03-3.08-8.03-7.76,3.21-7.76,8.03-7.76,8.03,3.08,8.03,7.76Z"/>
    </g>
  </g>
</svg>